<?xml version="1.0" standalone="no"?>
<!DOCTYPE svg PUBLIC "-//W3C//DTD SVG 20010904//EN"
 "http://www.w3.org/TR/2001/REC-SVG-20010904/DTD/svg10.dtd">
<svg version="1.0" xmlns="http://www.w3.org/2000/svg"
 width="200.000000pt" height="200.000000pt" viewBox="0 0 200.000000 200.000000"
 preserveAspectRatio="xMidYMid meet">

<g transform="translate(0.000000,200.000000) scale(0.100000,-0.100000)"
fill="#000000" stroke="none">
<path d="M365 1742 c-39 -33 -83 -75 -98 -95 l-27 -36 0 -339 c0 -371 6 -432
55 -555 58 -145 181 -291 310 -370 291 -177 682 -130 917 110 74 74 108 121
151 208 59 116 72 180 71 345 0 130 -3 153 -27 225 -43 128 -99 218 -196 315
-95 95 -186 149 -321 191 -108 34 -302 34 -410 0 -121 -37 -254 -115 -320
-186 l-25 -27 -5 137 -5 136 -70 -59z m760 -177 c99 -26 165 -64 246 -145 118
-116 172 -247 172 -415 0 -101 -16 -170 -59 -260 -70 -148 -192 -254 -343
-299 -62 -18 -202 -21 -271 -5 -185 42 -352 214 -405 414 -19 76 -19 220 1
298 51 199 207 360 397 412 70 18 189 18 262 0z"/>
<path d="M926 1410 c-179 -31 -323 -195 -334 -380 -7 -129 33 -232 125 -322
199 -194 520 -135 645 119 31 65 33 73 33 178 -1 97 -4 117 -27 167 -77 168
-264 268 -442 238z m228 -246 c3 -9 6 -82 6 -164 0 -123 -3 -151 -16 -165 -12
-12 -19 -13 -30 -4 -11 9 -14 46 -14 164 0 166 3 185 30 185 10 0 21 -7 24
-16z m-154 -53 c12 -24 13 -250 1 -269 -5 -8 -17 -12 -27 -10 -17 3 -19 15
-22 138 -1 74 0 140 2 147 8 19 34 16 46 -6z m-152 -63 c19 -19 16 -192 -3
-208 -8 -7 -22 -10 -30 -6 -20 7 -22 211 -2 219 19 8 22 8 35 -5z"/>
</g>
</svg>
